<svg width="903" height="231" xmlns="http://www.w3.org/2000/svg">
 <g>
  <title>background</title>
  <rect x="-1" y="-1" width="905" height="233" id="canvas_background" fill="none"/>
 </g>

 <g>
  <title>Layer 1</title>
  <g stroke="null" id="svg_1">
   <path stroke="null" d="m138.49999,5.52l-130.49999,89.06825l0,19.76295l130.49999,-89.08753l130.49999,89.08753l0,-19.76295l-130.49999,-89.06825zm0,30.84949l-103.38311,70.55856l0,120.07198l53.10389,0c0.05649,-15.56935 0.45195,-38.32085 5.76233,-58.32481c2.93766,-10.94192 7.28767,-21.16082 14.34935,-28.9214c7.11818,-7.80878 17.3435,-13.01463 30.16753,-13.01463s23.04935,5.20585 30.16753,13.01463c7.06169,7.76058 11.41169,17.97946 14.34935,28.9214c5.31039,20.00396 5.70584,42.75546 5.76233,58.32481l53.10389,0l0,-120.07198l-103.38311,-70.55856l0.00002,0zm-52.03051,51.42223a14.14032,7.1002 15.04 0 1 6.83571,1.06045a14.14032,7.1002 15.04 0 1 9.99935,7.03754l70.3909,0a8.32149,12.06504 74.96 0 1 9.99935,-7.03754a8.32149,12.06504 74.96 0 1 6.83571,-1.06045a8.32149,12.06504 74.96 0 1 10.05584,3.75978a8.32149,12.06504 74.96 0 1 -7.34416,9.44765a14.14032,7.1002 15.04 0 1 6.0448,8.86923a14.14032,7.1002 15.04 0 1 -16.89156,2.74754a14.14032,7.1002 15.04 0 1 -10.22532,-8.04978l-67.34025,0a8.32149,12.06504 74.96 0 1 -10.22532,8.04978a8.32149,12.06504 74.96 0 1 -16.89156,-2.74754a8.32149,12.06504 74.96 0 1 6.0448,-8.86923a14.14032,7.1002 15.04 0 1 -7.34416,-9.44765a14.14032,7.1002 15.04 0 1 10.05584,-3.75978z" fill="#000000" id="svg_2"/>
  </g>
  <text stroke="#000" transform="matrix(0.9496099352836609,0,0,0.8364779949188232,13.428952246904373,7.596108142286539) " fill="#000000" stroke-width="0" x="283.34902" y="192.18997" id="svg_3" font-size="142" font-family="sans-serif" text-anchor="start" xml:space="preserve">ZALOGUJ</text>
 </g>
</svg>